<mxfile host="app.diagrams.net" agent="Mozilla/5.0 (X11; CrOS armv7l 13597.84.0) AppleWebKit/537.36 (KHTML, like Gecko) Chrome/92.0.4515.98 Safari/537.36" version="28.2.8">
  <diagram name="Página-1" id="7ZFNLWQT970L9R44EoZn">
    <mxGraphModel dx="1094" dy="594" grid="1" gridSize="10" guides="1" tooltips="1" connect="1" arrows="1" fold="1" page="1" pageScale="1" pageWidth="827" pageHeight="1169" math="0" shadow="0">
      <root>
        <mxCell id="0" />
        <mxCell id="1" parent="0" />
        <mxCell id="_VCRK9TZy5Ek2TkXijl9-13" style="edgeStyle=orthogonalEdgeStyle;rounded=0;orthogonalLoop=1;jettySize=auto;html=1;" parent="1" source="_VCRK9TZy5Ek2TkXijl9-10" edge="1">
          <mxGeometry relative="1" as="geometry">
            <mxPoint x="200" y="260" as="targetPoint" />
          </mxGeometry>
        </mxCell>
        <mxCell id="_VCRK9TZy5Ek2TkXijl9-14" style="edgeStyle=orthogonalEdgeStyle;rounded=0;orthogonalLoop=1;jettySize=auto;html=1;" parent="1" source="_VCRK9TZy5Ek2TkXijl9-10" edge="1">
          <mxGeometry relative="1" as="geometry">
            <mxPoint x="560" y="260" as="targetPoint" />
          </mxGeometry>
        </mxCell>
        <mxCell id="_VCRK9TZy5Ek2TkXijl9-10" value="&lt;h1&gt;O CAMINHO DAS DUAS CHAVES&lt;/h1&gt;" style="text;html=1;whiteSpace=wrap;overflow=hidden;rounded=0;align=center;" parent="1" vertex="1">
          <mxGeometry x="140" y="50" width="480" height="90" as="geometry" />
        </mxCell>
        <mxCell id="_VCRK9TZy5Ek2TkXijl9-15" value="&lt;h1 style=&quot;margin-top: 0px;&quot;&gt;Heading&lt;/h1&gt;&lt;p&gt;Lorem ipsum dolor sit amet, consectetur adipisicing elit, sed do eiusmod tempor incididunt ut labore et dolore magna aliqua.&lt;/p&gt;" style="text;html=1;whiteSpace=wrap;overflow=hidden;rounded=0;align=center;" parent="1" vertex="1">
          <mxGeometry x="160" y="250" width="180" height="120" as="geometry" />
        </mxCell>
        <mxCell id="_VCRK9TZy5Ek2TkXijl9-16" value="&lt;h1 style=&quot;margin-top: 0px;&quot;&gt;Heading 123&lt;/h1&gt;&lt;p&gt;Lorem ipsum dolor sit amet, consectetur adipisicing elit, sed do eiusmod tempor incididunt ut labore et dolore magna aliqua.&amp;nbsp;&lt;/p&gt;" style="text;html=1;whiteSpace=wrap;overflow=hidden;rounded=0;align=center;" parent="1" vertex="1">
          <mxGeometry x="480" y="240" width="180" height="120" as="geometry" />
        </mxCell>
        <mxCell id="_VCRK9TZy5Ek2TkXijl9-17" value="&lt;h1&gt;Regras:&lt;/h1&gt;&lt;div&gt;1. Comece no início.&lt;/div&gt;&lt;div&gt;2.&lt;/div&gt;" style="whiteSpace=wrap;html=1;aspect=fixed;align=center;" parent="1" vertex="1">
          <mxGeometry x="810" y="20" width="240" height="240" as="geometry" />
        </mxCell>
      </root>
    </mxGraphModel>
  </diagram>
</mxfile>
